<?xml version="1.0" encoding="UTF-8" standalone="no"?>
<svg
   version="1.1"
   viewBox="0 0 1487.4724 1520.4724"
   width="98.390106mm"
   height="100.57291mm"
   id="svg1350"
   sodipodi:docname="wildly_logo.svg"
   inkscape:version="1.1 (c68e22c387, 2021-05-23)"
   xmlns:inkscape="http://www.inkscape.org/namespaces/inkscape"
   xmlns:sodipodi="http://sodipodi.sourceforge.net/DTD/sodipodi-0.dtd"
   xmlns="http://www.w3.org/2000/svg"
   xmlns:svg="http://www.w3.org/2000/svg">
  <defs
     id="defs1354" />
  <sodipodi:namedview
     id="namedview1352"
     pagecolor="#ffffff"
     bordercolor="#666666"
     borderopacity="1.0"
     inkscape:pageshadow="2"
     inkscape:pageopacity="0.0"
     inkscape:pagecheckerboard="0"
     showgrid="false"
     fit-margin-left="2"
     fit-margin-top="2"
     fit-margin-right="2"
     fit-margin-bottom="2"
     inkscape:zoom="1.5664062"
     inkscape:cx="185.45636"
     inkscape:cy="234.61347"
     inkscape:window-width="1920"
     inkscape:window-height="991"
     inkscape:window-x="-9"
     inkscape:window-y="-9"
     inkscape:window-maximized="1"
     inkscape:current-layer="svg1350"
     units="mm"
     inkscape:document-units="mm" />
  <path
     d="m 1441.2362,30.23622 h 15 l 1,1 v 135 l -2,51 -3,42 -3,26 -3,41 -4,32 -3,25 -2,9 -2,25 -2,7 -2,16 -2,6 -3,25 -7,40 -6,31 -8,35 -10,40 -2,3 -5,21 -4,13 -7,24 -10,33 -13,35 -5,11 -5,14 -22,52 -8,16 -9,19 -12,22 -8,16 -15,26 -9,14 -4,7 -7,10 -11,18 -26,35.99998 -7,8 -7,11 -7,8 -9,11 -17,17 -4,6 -13,15 -5,6 -8,7 -10,10 -16,14 -5,5 -13,12 -8,7 -8,5 -9,9 -14,11 -8,6 -13,9 -19,13 -13,9 -10.99998,7 -17,10 -26,14 -15,8 -23,11 -25,10 -23,8 -33,11 -31,8 -42,8 -26,3 -43,2 h -13 l -45,-2 -27,-3 -41,-7 -28,-6 -36,-9 -51,-15 -33,-11 -16,-7 -17,-7 -8,-4 -10,-4 -6,-4 -8,-2 -11,-6 -1,-3 8,-16 11,-18 6,-9 6,-12 9,-16 24,-36 9,-14 6,-10 11,-16 13,-18 10,-12 4,-7 8,-11 10,-14 10,-11.99998 8,-11 8,-10 15,-20 9,-10 8,-10 11,-13 6,-8 9,-10 10,-11 7,-8 9,-10 8,-10 7,-7 7,-8 14,-15 3,-1 2,-4 6,-7 7,-6 7,-8 5,-6 5,-5 h 2 l 2,-4 4,-4 h 2 l 2,-4 16,-16 h 2 l 2,-4 15,-15 8,-7 13,-12 17,-17 8,-7 13,-12 9,-7 9,-9 10,-8 13,-12 22,-18 12,-9 7,-7 11,-9 13,-10 27,-21 17,-13 7,-5 -24,11 -16,8 -17,9 -23,13 -27,15 -16,10 -36,24 -14,9 -6,4 -5,4 -9,6 -11,9 -18,13 -12,9 -14,12 -12,10 -14,11 -20,18 -8,7 -10,9 -8,7 -17,16 -16,15 -11,12 -26,26 h -2 l -2,5 -10,10 -7,8 -9,10 -7,8 -12,13 -11,14 -10,12 -4,6 -7,7 -8,11 -12,13 -3,6 -7,9 -6,9 -5,5.99998 -7,9 -10,14 -6,8 -12,18 -10,14 -14,20 -9,14 -8,13 -11,17 -4,6 -3,4 h -2 l -2,7 -6,10 -4,6 -6,11 -8,14 -7,12 -7,11 -12,21 -4,6 -8,18 -12,22 -14,26 -8,16 -9,20 -6,13 -14,30 -4,9 -13,29 -11,29 -13,31 -3,9 -2,2 -9,-1 -19,-10 -16,-8 -15,-9 -9,-5 -2,-2 -7,-3 -19,-10 -6,-4 v -3 l 10,-19 14,-22 9,-16 11,-19 12,-19 4,-6 5,-6 3,-7 15,-25 10,-15 7,-11 8,-12 6,-8 11,-18 10,-15 21,-30 8,-12 10,-14 8,-11 9,-12 9,-10 1,-1 -1,-9 -6,-14 -6,-18 -4,-10 -3,-10 -11,-36 -6,-28 -8,-48.99998 -2,-11 -2,-28 -2,-6 -2,-40 v -30 l 1,-9 1,-27 3,-12 1,-19 9,-49 5,-23 10,-30 4,-11 10,-24 8,-17 7,-16 8,-16 9,-15 8,-13 6,-10 3,-3 6,-11 12,-17 11,-14 6,-8 9,-10 16,-20 6,-7 19,-19 6,-5 7,-8 15,-13 8,-7 6,-4 4,1 5,6 11,20 10,13 12,11 16,12 14,8 15,5 12,3 12,1 h 24 l 12,-2 24,-7 11,-6 11,-7 11,-9 6,-2 5,4 7,11 8,11 12,13 11,9 10,7 14,6 11,4 14,4 h 40 l 16,-5 16,-6 16,-10 11,-9 11,-13 9,-13 8,-16 5,-5 26,7 11,2 h 22 l 20,-4 18,-6 16,-10 20,-16 11,-14 8,-13 6,-13 5,-15 3,-8 1,-15 0.99998,-31 11,-5 11,-4 12,-8 14,-12 8,-7 10,-13 8,-16 7,-19 5,-17 v -31 l -9,-29 -10,-21 -3,-5 v -6 l 4,-4 15,-5 17,-5 26,-6 22,-3 5,-2 18,-2 5,-2 8,-2 5,-2 12,-1 8,-3 11,-2 5,-2 17,-4 17,-2 5,-2 34,-7 18,-3 33,-6 38,-6 6,-2 17,-1 6,-2 2,-1 15,-1 z m -524.99998,534 -1,2 4,-2 z"
     fill="#064d34"
     id="path1348" />
</svg>
